<svg width="48" height="48" viewBox="0 0 48 48" fill="none" xmlns="http://www.w3.org/2000/svg">
<path d="M24.876 37.6486C24.8834 38.6972 25.8701 39.5459 27.0869 39.546C28.3012 39.546 29.2872 38.701 29.2988 37.6554C29.2987 37.6496 29.2979 37.6436 29.2979 37.6378C29.2979 37.1873 29.7212 36.8225 30.2432 36.8224C30.7648 36.8224 31.1877 37.1868 31.1885 37.6368H31.1895C31.1893 39.5921 29.3525 41.1769 27.0869 41.1769L26.9814 41.1759C24.7647 41.1274 22.9845 39.5616 22.9844 37.6368L22.9863 30.7814H24.876V37.6486ZM45.9102 24.6876V27.3644C45.882 27.3705 43.6811 27.8466 39.6543 28.3068V24.6866L24.9893 11.7355L33.0762 24.6866V28.8781C31.2963 28.9865 29.3486 29.0703 27.2441 29.1144V24.6866L23.9551 12.6281L20.666 24.6866V29.1144C18.5469 29.0699 16.5868 28.9856 14.7969 28.8761V24.6866L22.8838 11.7355L8.21875 24.6866V28.3029C4.18971 27.8411 2 27.3644 2 27.3644V24.6876L23.9551 9.22766L45.9102 24.6876Z" fill="black"/>
</svg>
