<svg width="366" height="286" viewBox="0 0 366 286" fill="none" xmlns="http://www.w3.org/2000/svg">
<path d="M190.284 256.41C190.346 265.134 198.556 272.191 208.679 272.191C218.78 272.191 226.976 265.164 227.073 256.467C227.072 256.419 227.07 256.37 227.07 256.321C227.071 252.574 230.59 249.535 234.933 249.535C239.271 249.535 242.79 252.568 242.796 256.312H242.805C242.804 272.576 227.525 285.762 208.679 285.763L207.799 285.754C189.359 285.351 174.555 272.322 174.555 256.312L174.565 199.285H190.284V256.41ZM365.256 148.598V170.869C365.242 170.872 346.917 174.88 313.214 178.73V148.598L191.229 40.8643L258.495 148.598V183.462C243.691 184.364 227.491 185.063 209.987 185.43V148.598L182.628 48.2881L155.269 148.598V185.43C137.642 185.06 121.338 184.354 106.45 183.443V148.598L173.715 40.8643L51.7305 148.598V178.695C18.2134 174.854 0 170.869 0 170.869V148.598L182.628 20L365.256 148.598Z" fill="white"/>
</svg>
