<svg width="700" height="664" viewBox="0 0 700 664" fill="none" xmlns="http://www.w3.org/2000/svg">
<path opacity="0.2" fill-rule="evenodd" clip-rule="evenodd" d="M411.738 182.935L676.798 9.96241L510.924 269.868L699.916 360.036L500.022 403.874L590.323 663.285L381.447 477.375L252.292 630.145L234.274 433.918L11.2803 439.747L187.11 319.182L37.2901 167.506L259.161 235.525L310.734 18.4247L411.738 182.935ZM269.91 260.945L129.545 220.3L218.348 322.764L101.677 410.915L259.124 418.773L277.523 548.973L382.798 453.364L524.78 574.618L479.074 391.697L606.8 354.252L486.589 277.498L586.58 107.708L403.82 213.759L324.967 113.757L269.91 260.945Z" fill="#FF0000"/>
<path fill-rule="evenodd" clip-rule="evenodd" d="M401.019 173.235L666.079 0.262212L500.206 260.168L689.198 350.336L489.303 394.174L579.605 653.585L370.728 467.675L241.573 620.445L223.556 424.218L0.562008 430.047L176.391 309.482L26.5718 157.805L248.443 225.825L300.016 8.72455L401.019 173.235ZM259.192 251.245L118.827 210.6L207.629 313.064L90.959 401.215L248.405 409.073L266.805 539.273L372.08 443.663L514.061 564.917L468.355 381.996L596.082 344.552L475.87 267.798L575.862 98.008L393.102 204.059L314.248 104.057L259.192 251.245Z" fill="#FF0000"/>
</svg>
