<svg width="15" height="15" viewBox="0 0 15 15" fill="none" xmlns="http://www.w3.org/2000/svg">
<path d="M5.37869 3.25737C4.98817 2.86684 4.355 2.86685 3.96448 3.25737L3.25737 3.96448C2.86685 4.355 2.86684 4.98817 3.25737 5.37869L4.67158 6.7929C5.06211 7.18343 5.06211 7.81659 4.67158 8.20712L3.25737 9.62133C2.86685 10.0119 2.86685 10.645 3.25737 11.0355L3.96448 11.7427C4.355 12.1332 4.98817 12.1332 5.37869 11.7427L6.7929 10.3284C7.18343 9.93791 7.81659 9.93791 8.20712 10.3284L9.62133 11.7427C10.0119 12.1332 10.645 12.1332 11.0355 11.7427L11.7427 11.0355C12.1332 10.645 12.1332 10.0119 11.7427 9.62133L10.3284 8.20712C9.93791 7.81659 9.93791 7.18343 10.3284 6.7929L11.7426 5.37869C12.1332 4.98816 12.1332 4.355 11.7427 3.96448L11.0355 3.25737C10.645 2.86684 10.0119 2.86685 9.62133 3.25737L8.20712 4.67158C7.81659 5.06211 7.18343 5.06211 6.7929 4.67158L5.37869 3.25737Z" fill="#FF0000"/>
</svg>
