<svg width="15" height="15" viewBox="0 0 15 15" fill="none" xmlns="http://www.w3.org/2000/svg">
<path fill-rule="evenodd" clip-rule="evenodd" d="M6.42285 13.4231C6.42285 14.0178 6.90501 14.5 7.49978 14.5C8.09454 14.5 8.5767 14.0178 8.5767 13.4231V13.0437C8.5767 12.5656 8.91891 12.16 9.36034 11.9764C9.80165 11.7928 10.3195 11.8434 10.6575 12.1814L10.926 12.4499C11.3466 12.8705 12.0284 12.8705 12.449 12.4499C12.8696 12.0294 12.8696 11.3475 12.449 10.9269L12.1814 10.6593C11.8431 10.321 11.7926 9.80263 11.9764 9.36092C12.1603 8.9193 12.566 8.57692 13.0444 8.57692H13.4231C14.0178 8.57692 14.5 8.09477 14.5 7.5C14.5 6.90523 14.0178 6.42308 13.4231 6.42308H13.0443C12.566 6.42308 12.1603 6.08075 11.9765 5.63917C11.7927 5.19754 11.8432 4.67923 12.1814 4.34098L12.4491 4.07333C12.8696 3.65277 12.8696 2.9709 12.4491 2.55033C12.0285 2.12977 11.3466 2.12977 10.9261 2.55033L10.6578 2.81864C10.3197 3.15667 9.80182 3.20723 9.36044 3.02363C8.91896 2.83998 8.5767 2.43437 8.5767 1.95622V1.57692C8.5767 0.982154 8.09454 0.5 7.49977 0.5C6.90501 0.5 6.42285 0.982156 6.42285 1.57692V1.95662C6.42285 2.43475 6.08068 2.84036 5.63927 3.02412C5.19773 3.20794 4.67951 3.15744 4.34132 2.81925L4.0725 2.55043C3.65194 2.12987 2.97007 2.12987 2.5495 2.55043C2.12894 2.971 2.12894 3.65287 2.5495 4.07343L2.81926 4.34319C3.15712 4.68104 3.20767 5.19871 3.02414 5.63985C2.84059 6.08106 2.4352 6.42308 1.95733 6.42308H1.57692C0.982155 6.42308 0.5 6.90523 0.5 7.5C0.5 8.09477 0.982155 8.57692 1.57692 8.57692H1.95723C2.43516 8.57692 2.84059 8.91898 3.02418 9.36024C3.20775 9.80146 3.1572 10.3192 2.81929 10.6571L2.54959 10.9268C2.12902 11.3474 2.12902 12.0293 2.54959 12.4498C2.97015 12.8704 3.65202 12.8704 4.07259 12.4498L4.34163 12.1808C4.67977 11.8426 5.1979 11.7921 5.63937 11.9759C6.08072 12.1596 6.42285 12.5652 6.42285 13.0433V13.4231ZM7.49993 10.1923C8.98685 10.1923 10.1922 8.98692 10.1922 7.5C10.1922 6.01308 8.98685 4.80769 7.49993 4.80769C6.013 4.80769 4.80762 6.01308 4.80762 7.5C4.80762 8.98692 6.013 10.1923 7.49993 10.1923Z" fill="#FF0000"/>
</svg>
