<svg width="15" height="15" viewBox="0 0 15 15" fill="none" xmlns="http://www.w3.org/2000/svg">
<path d="M9 3C9 3.55228 8.55228 4 8 4H5C4.44772 4 4 4.44772 4 5V10C4 10.5523 4.44772 11 5 11H8C8.55228 11 9 11.4477 9 12V12C9 12.5523 8.55228 13 8 13H3C2.44772 13 2 12.5523 2 12V3C2 2.44771 2.44772 2 3 2H8C8.55228 2 9 2.44772 9 3V3ZM14.2428 6.7928C14.6334 7.18334 14.6335 7.81666 14.2428 8.2072L12.1211 10.3283C11.7306 10.7187 11.0976 10.7186 10.7071 10.3282L10.3284 9.94945C10.147 9.76811 10.147 9.47408 10.3284 9.29273V9.29273C10.6209 9.00019 10.4137 8.5 10 8.5H8C7.44772 8.5 7 8.05228 7 7.5V7.5C7 6.94772 7.44772 6.5 8 6.5H10C10.4137 6.5 10.6209 5.99981 10.3284 5.70727V5.70727C10.147 5.52592 10.147 5.23189 10.3284 5.05055L10.7071 4.67183C11.0976 4.28135 11.7306 4.28131 12.1211 4.67173L14.2428 6.7928Z" fill="#FF0000"/>
</svg>
